<mxfile host="app.diagrams.net" modified="2023-07-18T12:46:20.928Z" agent="Mozilla/5.0 (Windows NT 10.0; Win64; x64) AppleWebKit/537.36 (KHTML, like Gecko) Chrome/114.0.0.0 Safari/537.36 Edg/114.0.1823.82" etag="EEzIO7yVMCR4FhXYO9Hz" version="21.6.2" type="github">
  <diagram name="第 1 页" id="uSrUokJS8Hb0ceGUIgTj">
    <mxGraphModel dx="739" dy="470" grid="1" gridSize="10" guides="1" tooltips="1" connect="1" arrows="1" fold="1" page="1" pageScale="1" pageWidth="827" pageHeight="1169" math="0" shadow="0">
      <root>
        <mxCell id="0" />
        <mxCell id="1" parent="0" />
        <mxCell id="_P49Gniz_19bYN9I4_xw-1" value="" style="rounded=0;whiteSpace=wrap;html=1;fillColor=#008a00;strokeColor=#005700;fontColor=#ffffff;fontSize=14;fontStyle=1" vertex="1" parent="1">
          <mxGeometry x="110" y="180" width="100" height="40" as="geometry" />
        </mxCell>
        <mxCell id="_P49Gniz_19bYN9I4_xw-2" value="" style="rounded=0;whiteSpace=wrap;html=1;fillColor=#008a00;strokeColor=#005700;fontColor=#ffffff;fontSize=14;fontStyle=1" vertex="1" parent="1">
          <mxGeometry x="210" y="180" width="100" height="40" as="geometry" />
        </mxCell>
        <mxCell id="_P49Gniz_19bYN9I4_xw-3" value="" style="rounded=0;whiteSpace=wrap;html=1;fontSize=14;fontStyle=1" vertex="1" parent="1">
          <mxGeometry x="310" y="180" width="100" height="40" as="geometry" />
        </mxCell>
        <mxCell id="_P49Gniz_19bYN9I4_xw-4" value="" style="rounded=0;whiteSpace=wrap;html=1;fontSize=14;fontStyle=1" vertex="1" parent="1">
          <mxGeometry x="410" y="180" width="100" height="40" as="geometry" />
        </mxCell>
        <mxCell id="_P49Gniz_19bYN9I4_xw-5" value="" style="rounded=0;whiteSpace=wrap;html=1;fontSize=14;fontStyle=1" vertex="1" parent="1">
          <mxGeometry x="510" y="180" width="100" height="40" as="geometry" />
        </mxCell>
        <mxCell id="_P49Gniz_19bYN9I4_xw-6" value="" style="rounded=0;whiteSpace=wrap;html=1;fillColor=#6d8764;strokeColor=#3A5431;fontColor=#ffffff;fontSize=14;fontStyle=1" vertex="1" parent="1">
          <mxGeometry x="110" y="220" width="100" height="40" as="geometry" />
        </mxCell>
        <mxCell id="_P49Gniz_19bYN9I4_xw-7" value="" style="rounded=0;whiteSpace=wrap;html=1;fillColor=#6d8764;strokeColor=#3A5431;fontColor=#ffffff;fontSize=14;fontStyle=1" vertex="1" parent="1">
          <mxGeometry x="210" y="220" width="100" height="40" as="geometry" />
        </mxCell>
        <mxCell id="_P49Gniz_19bYN9I4_xw-8" value="" style="rounded=0;whiteSpace=wrap;html=1;fontSize=14;fontStyle=1" vertex="1" parent="1">
          <mxGeometry x="310" y="220" width="100" height="40" as="geometry" />
        </mxCell>
        <mxCell id="_P49Gniz_19bYN9I4_xw-9" value="" style="rounded=0;whiteSpace=wrap;html=1;fillColor=#008a00;strokeColor=#005700;fontColor=#ffffff;fontSize=14;fontStyle=1" vertex="1" parent="1">
          <mxGeometry x="410" y="220" width="100" height="40" as="geometry" />
        </mxCell>
        <mxCell id="_P49Gniz_19bYN9I4_xw-10" value="" style="rounded=0;whiteSpace=wrap;html=1;fontSize=14;fontStyle=1" vertex="1" parent="1">
          <mxGeometry x="510" y="220" width="100" height="40" as="geometry" />
        </mxCell>
        <mxCell id="_P49Gniz_19bYN9I4_xw-11" value="" style="rounded=0;whiteSpace=wrap;html=1;fontSize=14;fontStyle=1" vertex="1" parent="1">
          <mxGeometry x="110" y="260" width="100" height="40" as="geometry" />
        </mxCell>
        <mxCell id="_P49Gniz_19bYN9I4_xw-12" value="" style="rounded=0;whiteSpace=wrap;html=1;fontSize=14;fontStyle=1" vertex="1" parent="1">
          <mxGeometry x="210" y="260" width="100" height="40" as="geometry" />
        </mxCell>
        <mxCell id="_P49Gniz_19bYN9I4_xw-13" value="" style="rounded=0;whiteSpace=wrap;html=1;fillColor=#6d8764;fontColor=#ffffff;strokeColor=#3A5431;fontSize=14;fontStyle=1" vertex="1" parent="1">
          <mxGeometry x="310" y="260" width="100" height="40" as="geometry" />
        </mxCell>
        <mxCell id="_P49Gniz_19bYN9I4_xw-14" value="" style="rounded=0;whiteSpace=wrap;html=1;fillColor=#008a00;fontColor=#ffffff;strokeColor=#005700;fontSize=14;fontStyle=1" vertex="1" parent="1">
          <mxGeometry x="410" y="260" width="100" height="40" as="geometry" />
        </mxCell>
        <mxCell id="_P49Gniz_19bYN9I4_xw-15" value="" style="rounded=0;whiteSpace=wrap;html=1;fillColor=#008a00;fontColor=#ffffff;strokeColor=#005700;fontSize=14;fontStyle=1" vertex="1" parent="1">
          <mxGeometry x="510" y="260" width="100" height="40" as="geometry" />
        </mxCell>
        <mxCell id="_P49Gniz_19bYN9I4_xw-16" value="" style="rounded=0;whiteSpace=wrap;html=1;fontSize=14;fontStyle=1" vertex="1" parent="1">
          <mxGeometry x="110" y="300" width="100" height="40" as="geometry" />
        </mxCell>
        <mxCell id="_P49Gniz_19bYN9I4_xw-17" value="" style="rounded=0;whiteSpace=wrap;html=1;fillColor=#6d8764;strokeColor=#3A5431;fontColor=#ffffff;fontSize=14;fontStyle=1" vertex="1" parent="1">
          <mxGeometry x="210" y="300" width="100" height="40" as="geometry" />
        </mxCell>
        <mxCell id="_P49Gniz_19bYN9I4_xw-18" value="" style="rounded=0;whiteSpace=wrap;html=1;fontSize=14;fontStyle=1" vertex="1" parent="1">
          <mxGeometry x="310" y="300" width="100" height="40" as="geometry" />
        </mxCell>
        <mxCell id="_P49Gniz_19bYN9I4_xw-19" value="" style="rounded=0;whiteSpace=wrap;html=1;fontSize=14;fontStyle=1" vertex="1" parent="1">
          <mxGeometry x="410" y="300" width="100" height="40" as="geometry" />
        </mxCell>
        <mxCell id="_P49Gniz_19bYN9I4_xw-20" value="" style="rounded=0;whiteSpace=wrap;html=1;fontSize=14;fontStyle=1" vertex="1" parent="1">
          <mxGeometry x="510" y="300" width="100" height="40" as="geometry" />
        </mxCell>
        <mxCell id="_P49Gniz_19bYN9I4_xw-41" value="" style="ellipse;whiteSpace=wrap;html=1;aspect=fixed;fillColor=#a20025;fontColor=#ffffff;strokeColor=#6F0000;fontSize=14;fontStyle=1" vertex="1" parent="1">
          <mxGeometry x="135" y="70" width="50" height="50" as="geometry" />
        </mxCell>
        <mxCell id="_P49Gniz_19bYN9I4_xw-42" value="" style="endArrow=classic;html=1;rounded=0;exitX=0.5;exitY=1;exitDx=0;exitDy=0;fontSize=14;fontStyle=1" edge="1" parent="1" source="_P49Gniz_19bYN9I4_xw-41">
          <mxGeometry width="50" height="50" relative="1" as="geometry">
            <mxPoint x="170" y="170" as="sourcePoint" />
            <mxPoint x="160" y="170" as="targetPoint" />
          </mxGeometry>
        </mxCell>
        <mxCell id="_P49Gniz_19bYN9I4_xw-43" value="&lt;font style=&quot;font-size: 14px;&quot;&gt;&lt;span style=&quot;font-size: 14px;&quot;&gt;根节点&lt;/span&gt;&lt;/font&gt;" style="text;html=1;align=center;verticalAlign=middle;resizable=0;points=[];autosize=1;strokeColor=none;fillColor=none;fontSize=14;fontStyle=1" vertex="1" parent="1">
          <mxGeometry x="185" y="80" width="70" height="30" as="geometry" />
        </mxCell>
        <mxCell id="_P49Gniz_19bYN9I4_xw-44" value="" style="ellipse;whiteSpace=wrap;html=1;aspect=fixed;fillColor=#a20025;fontColor=#ffffff;strokeColor=#6F0000;fontSize=14;fontStyle=1" vertex="1" parent="1">
          <mxGeometry x="435" y="70" width="50" height="50" as="geometry" />
        </mxCell>
        <mxCell id="_P49Gniz_19bYN9I4_xw-45" value="" style="endArrow=classic;html=1;rounded=0;exitX=0.5;exitY=1;exitDx=0;exitDy=0;entryX=0.5;entryY=0;entryDx=0;entryDy=0;fontSize=14;fontStyle=1" edge="1" source="_P49Gniz_19bYN9I4_xw-44" parent="1" target="_P49Gniz_19bYN9I4_xw-9">
          <mxGeometry width="50" height="50" relative="1" as="geometry">
            <mxPoint x="475" y="170" as="sourcePoint" />
            <mxPoint x="480" y="160" as="targetPoint" />
          </mxGeometry>
        </mxCell>
        <mxCell id="_P49Gniz_19bYN9I4_xw-46" value="&lt;font style=&quot;font-size: 14px;&quot;&gt;&lt;span style=&quot;font-size: 14px;&quot;&gt;根节点&lt;/span&gt;&lt;/font&gt;" style="text;html=1;align=center;verticalAlign=middle;resizable=0;points=[];autosize=1;strokeColor=none;fillColor=none;fontSize=14;fontStyle=1" vertex="1" parent="1">
          <mxGeometry x="490" y="80" width="70" height="30" as="geometry" />
        </mxCell>
        <mxCell id="_P49Gniz_19bYN9I4_xw-49" value="" style="endArrow=classic;html=1;rounded=0;fontSize=14;fontStyle=1" edge="1" parent="1">
          <mxGeometry width="50" height="50" relative="1" as="geometry">
            <mxPoint x="180" y="200" as="sourcePoint" />
            <mxPoint x="240" y="200" as="targetPoint" />
          </mxGeometry>
        </mxCell>
        <mxCell id="_P49Gniz_19bYN9I4_xw-50" value="" style="endArrow=classic;html=1;rounded=0;fontSize=14;fontStyle=1" edge="1" parent="1">
          <mxGeometry width="50" height="50" relative="1" as="geometry">
            <mxPoint x="460" y="240" as="sourcePoint" />
            <mxPoint x="460" y="280" as="targetPoint" />
          </mxGeometry>
        </mxCell>
        <mxCell id="_P49Gniz_19bYN9I4_xw-52" value="" style="endArrow=classic;html=1;rounded=0;entryX=0.3;entryY=0.5;entryDx=0;entryDy=0;entryPerimeter=0;fontSize=14;fontStyle=1" edge="1" parent="1" target="_P49Gniz_19bYN9I4_xw-15">
          <mxGeometry width="50" height="50" relative="1" as="geometry">
            <mxPoint x="490" y="280" as="sourcePoint" />
            <mxPoint x="540" y="230" as="targetPoint" />
          </mxGeometry>
        </mxCell>
        <mxCell id="_P49Gniz_19bYN9I4_xw-53" value="" style="rounded=0;whiteSpace=wrap;html=1;fillColor=#008a00;strokeColor=#005700;fontColor=#ffffff;fontSize=14;fontStyle=1" vertex="1" parent="1">
          <mxGeometry x="727" y="220" width="100" height="40" as="geometry" />
        </mxCell>
        <mxCell id="_P49Gniz_19bYN9I4_xw-54" value="存活对象" style="text;html=1;align=center;verticalAlign=middle;resizable=0;points=[];autosize=1;strokeColor=none;fillColor=none;fontSize=14;fontStyle=1" vertex="1" parent="1">
          <mxGeometry x="855" y="225" width="80" height="30" as="geometry" />
        </mxCell>
        <mxCell id="_P49Gniz_19bYN9I4_xw-55" value="" style="rounded=0;whiteSpace=wrap;html=1;fillColor=#6d8764;fontColor=#ffffff;strokeColor=#3A5431;fontSize=14;fontStyle=1" vertex="1" parent="1">
          <mxGeometry x="730" y="300" width="100" height="40" as="geometry" />
        </mxCell>
        <mxCell id="_P49Gniz_19bYN9I4_xw-56" value="垃圾对象" style="text;html=1;align=center;verticalAlign=middle;resizable=0;points=[];autosize=1;strokeColor=none;fillColor=none;fontSize=14;fontStyle=1" vertex="1" parent="1">
          <mxGeometry x="855" y="305" width="80" height="30" as="geometry" />
        </mxCell>
        <mxCell id="_P49Gniz_19bYN9I4_xw-57" value="" style="shape=flexArrow;endArrow=classic;html=1;rounded=0;fillColor=#d80073;strokeColor=#A50040;fontSize=14;fontStyle=1" edge="1" parent="1">
          <mxGeometry width="50" height="50" relative="1" as="geometry">
            <mxPoint x="340" y="360" as="sourcePoint" />
            <mxPoint x="340" y="490" as="targetPoint" />
          </mxGeometry>
        </mxCell>
        <mxCell id="_P49Gniz_19bYN9I4_xw-58" value="&lt;font style=&quot;font-size: 18px;&quot;&gt;回收后&lt;/font&gt;" style="text;html=1;align=center;verticalAlign=middle;resizable=0;points=[];autosize=1;strokeColor=none;fillColor=none;fontSize=14;fontStyle=1;fontColor=#FF33FF;" vertex="1" parent="1">
          <mxGeometry x="350" y="395" width="80" height="40" as="geometry" />
        </mxCell>
        <mxCell id="_P49Gniz_19bYN9I4_xw-60" value="" style="rounded=0;whiteSpace=wrap;html=1;fillColor=#008a00;strokeColor=#005700;fontColor=#ffffff;fontSize=14;fontStyle=1" vertex="1" parent="1">
          <mxGeometry x="110" y="630" width="100" height="40" as="geometry" />
        </mxCell>
        <mxCell id="_P49Gniz_19bYN9I4_xw-61" value="" style="rounded=0;whiteSpace=wrap;html=1;fillColor=#008a00;strokeColor=#005700;fontColor=#ffffff;fontSize=14;fontStyle=1" vertex="1" parent="1">
          <mxGeometry x="210" y="630" width="100" height="40" as="geometry" />
        </mxCell>
        <mxCell id="_P49Gniz_19bYN9I4_xw-62" value="" style="rounded=0;whiteSpace=wrap;html=1;fontSize=14;fontStyle=1" vertex="1" parent="1">
          <mxGeometry x="310" y="630" width="100" height="40" as="geometry" />
        </mxCell>
        <mxCell id="_P49Gniz_19bYN9I4_xw-63" value="" style="rounded=0;whiteSpace=wrap;html=1;fontSize=14;fontStyle=1" vertex="1" parent="1">
          <mxGeometry x="410" y="630" width="100" height="40" as="geometry" />
        </mxCell>
        <mxCell id="_P49Gniz_19bYN9I4_xw-64" value="" style="rounded=0;whiteSpace=wrap;html=1;fontSize=14;fontStyle=1" vertex="1" parent="1">
          <mxGeometry x="510" y="630" width="100" height="40" as="geometry" />
        </mxCell>
        <mxCell id="_P49Gniz_19bYN9I4_xw-65" value="" style="rounded=0;whiteSpace=wrap;html=1;fontSize=14;fontStyle=1" vertex="1" parent="1">
          <mxGeometry x="110" y="670" width="100" height="40" as="geometry" />
        </mxCell>
        <mxCell id="_P49Gniz_19bYN9I4_xw-66" value="" style="rounded=0;whiteSpace=wrap;html=1;fontSize=14;fontStyle=1" vertex="1" parent="1">
          <mxGeometry x="210" y="670" width="100" height="40" as="geometry" />
        </mxCell>
        <mxCell id="_P49Gniz_19bYN9I4_xw-67" value="" style="rounded=0;whiteSpace=wrap;html=1;fontSize=14;fontStyle=1" vertex="1" parent="1">
          <mxGeometry x="310" y="670" width="100" height="40" as="geometry" />
        </mxCell>
        <mxCell id="_P49Gniz_19bYN9I4_xw-68" value="" style="rounded=0;whiteSpace=wrap;html=1;fillColor=#008a00;strokeColor=#005700;fontColor=#ffffff;fontSize=14;fontStyle=1" vertex="1" parent="1">
          <mxGeometry x="410" y="670" width="100" height="40" as="geometry" />
        </mxCell>
        <mxCell id="_P49Gniz_19bYN9I4_xw-69" value="" style="rounded=0;whiteSpace=wrap;html=1;fontSize=14;fontStyle=1" vertex="1" parent="1">
          <mxGeometry x="510" y="670" width="100" height="40" as="geometry" />
        </mxCell>
        <mxCell id="_P49Gniz_19bYN9I4_xw-70" value="" style="rounded=0;whiteSpace=wrap;html=1;fontSize=14;fontStyle=1" vertex="1" parent="1">
          <mxGeometry x="110" y="710" width="100" height="40" as="geometry" />
        </mxCell>
        <mxCell id="_P49Gniz_19bYN9I4_xw-71" value="" style="rounded=0;whiteSpace=wrap;html=1;fontSize=14;fontStyle=1" vertex="1" parent="1">
          <mxGeometry x="210" y="710" width="100" height="40" as="geometry" />
        </mxCell>
        <mxCell id="_P49Gniz_19bYN9I4_xw-72" value="" style="rounded=0;whiteSpace=wrap;html=1;fontSize=14;fontStyle=1" vertex="1" parent="1">
          <mxGeometry x="310" y="710" width="100" height="40" as="geometry" />
        </mxCell>
        <mxCell id="_P49Gniz_19bYN9I4_xw-73" value="" style="rounded=0;whiteSpace=wrap;html=1;fillColor=#008a00;fontColor=#ffffff;strokeColor=#005700;fontSize=14;fontStyle=1" vertex="1" parent="1">
          <mxGeometry x="410" y="710" width="100" height="40" as="geometry" />
        </mxCell>
        <mxCell id="_P49Gniz_19bYN9I4_xw-74" value="" style="rounded=0;whiteSpace=wrap;html=1;fillColor=#008a00;fontColor=#ffffff;strokeColor=#005700;fontSize=14;fontStyle=1" vertex="1" parent="1">
          <mxGeometry x="510" y="710" width="100" height="40" as="geometry" />
        </mxCell>
        <mxCell id="_P49Gniz_19bYN9I4_xw-75" value="" style="rounded=0;whiteSpace=wrap;html=1;fontSize=14;fontStyle=1" vertex="1" parent="1">
          <mxGeometry x="110" y="750" width="100" height="40" as="geometry" />
        </mxCell>
        <mxCell id="_P49Gniz_19bYN9I4_xw-76" value="" style="rounded=0;whiteSpace=wrap;html=1;fontSize=14;fontStyle=1" vertex="1" parent="1">
          <mxGeometry x="210" y="750" width="100" height="40" as="geometry" />
        </mxCell>
        <mxCell id="_P49Gniz_19bYN9I4_xw-77" value="" style="rounded=0;whiteSpace=wrap;html=1;fontSize=14;fontStyle=1" vertex="1" parent="1">
          <mxGeometry x="310" y="750" width="100" height="40" as="geometry" />
        </mxCell>
        <mxCell id="_P49Gniz_19bYN9I4_xw-78" value="" style="rounded=0;whiteSpace=wrap;html=1;fontSize=14;fontStyle=1" vertex="1" parent="1">
          <mxGeometry x="410" y="750" width="100" height="40" as="geometry" />
        </mxCell>
        <mxCell id="_P49Gniz_19bYN9I4_xw-79" value="" style="rounded=0;whiteSpace=wrap;html=1;fontSize=14;fontStyle=1" vertex="1" parent="1">
          <mxGeometry x="510" y="750" width="100" height="40" as="geometry" />
        </mxCell>
        <mxCell id="_P49Gniz_19bYN9I4_xw-80" value="" style="ellipse;whiteSpace=wrap;html=1;aspect=fixed;fillColor=#a20025;fontColor=#ffffff;strokeColor=#6F0000;fontSize=14;fontStyle=1" vertex="1" parent="1">
          <mxGeometry x="135" y="520" width="50" height="50" as="geometry" />
        </mxCell>
        <mxCell id="_P49Gniz_19bYN9I4_xw-81" value="" style="endArrow=classic;html=1;rounded=0;exitX=0.5;exitY=1;exitDx=0;exitDy=0;fontSize=14;fontStyle=1" edge="1" source="_P49Gniz_19bYN9I4_xw-80" parent="1">
          <mxGeometry width="50" height="50" relative="1" as="geometry">
            <mxPoint x="170" y="620" as="sourcePoint" />
            <mxPoint x="160" y="620" as="targetPoint" />
          </mxGeometry>
        </mxCell>
        <mxCell id="_P49Gniz_19bYN9I4_xw-82" value="&lt;font style=&quot;font-size: 14px;&quot;&gt;&lt;span style=&quot;font-size: 14px;&quot;&gt;根节点&lt;/span&gt;&lt;/font&gt;" style="text;html=1;align=center;verticalAlign=middle;resizable=0;points=[];autosize=1;strokeColor=none;fillColor=none;fontSize=14;fontStyle=1" vertex="1" parent="1">
          <mxGeometry x="185" y="530" width="70" height="30" as="geometry" />
        </mxCell>
        <mxCell id="_P49Gniz_19bYN9I4_xw-83" value="" style="ellipse;whiteSpace=wrap;html=1;aspect=fixed;fillColor=#a20025;fontColor=#ffffff;strokeColor=#6F0000;fontSize=14;fontStyle=1" vertex="1" parent="1">
          <mxGeometry x="435" y="520" width="50" height="50" as="geometry" />
        </mxCell>
        <mxCell id="_P49Gniz_19bYN9I4_xw-84" value="" style="endArrow=classic;html=1;rounded=0;exitX=0.5;exitY=1;exitDx=0;exitDy=0;entryX=0.5;entryY=0;entryDx=0;entryDy=0;fontSize=14;fontStyle=1" edge="1" source="_P49Gniz_19bYN9I4_xw-83" target="_P49Gniz_19bYN9I4_xw-68" parent="1">
          <mxGeometry width="50" height="50" relative="1" as="geometry">
            <mxPoint x="475" y="620" as="sourcePoint" />
            <mxPoint x="480" y="610" as="targetPoint" />
          </mxGeometry>
        </mxCell>
        <mxCell id="_P49Gniz_19bYN9I4_xw-85" value="&lt;font style=&quot;font-size: 14px;&quot;&gt;&lt;span style=&quot;font-size: 14px;&quot;&gt;根节点&lt;/span&gt;&lt;/font&gt;" style="text;html=1;align=center;verticalAlign=middle;resizable=0;points=[];autosize=1;strokeColor=none;fillColor=none;fontSize=14;fontStyle=1" vertex="1" parent="1">
          <mxGeometry x="490" y="530" width="70" height="30" as="geometry" />
        </mxCell>
        <mxCell id="_P49Gniz_19bYN9I4_xw-86" value="" style="endArrow=classic;html=1;rounded=0;fontSize=14;fontStyle=1" edge="1" parent="1">
          <mxGeometry width="50" height="50" relative="1" as="geometry">
            <mxPoint x="180" y="650" as="sourcePoint" />
            <mxPoint x="240" y="650" as="targetPoint" />
          </mxGeometry>
        </mxCell>
        <mxCell id="_P49Gniz_19bYN9I4_xw-87" value="" style="endArrow=classic;html=1;rounded=0;fontSize=14;fontStyle=1" edge="1" parent="1">
          <mxGeometry width="50" height="50" relative="1" as="geometry">
            <mxPoint x="460" y="690" as="sourcePoint" />
            <mxPoint x="460" y="730" as="targetPoint" />
          </mxGeometry>
        </mxCell>
        <mxCell id="_P49Gniz_19bYN9I4_xw-88" value="" style="endArrow=classic;html=1;rounded=0;entryX=0.3;entryY=0.5;entryDx=0;entryDy=0;entryPerimeter=0;fontSize=14;fontStyle=1" edge="1" target="_P49Gniz_19bYN9I4_xw-74" parent="1">
          <mxGeometry width="50" height="50" relative="1" as="geometry">
            <mxPoint x="490" y="730" as="sourcePoint" />
            <mxPoint x="540" y="680" as="targetPoint" />
          </mxGeometry>
        </mxCell>
        <mxCell id="_P49Gniz_19bYN9I4_xw-89" value="" style="rounded=0;whiteSpace=wrap;html=1;fontSize=14;fontStyle=1" vertex="1" parent="1">
          <mxGeometry x="730" y="390" width="100" height="40" as="geometry" />
        </mxCell>
        <mxCell id="_P49Gniz_19bYN9I4_xw-90" value="空余对象" style="text;html=1;align=center;verticalAlign=middle;resizable=0;points=[];autosize=1;strokeColor=none;fillColor=none;fontSize=14;fontStyle=1" vertex="1" parent="1">
          <mxGeometry x="855" y="395" width="80" height="30" as="geometry" />
        </mxCell>
        <mxCell id="_P49Gniz_19bYN9I4_xw-91" value="" style="endArrow=classic;html=1;rounded=0;fontSize=14;fontStyle=1" edge="1" parent="1">
          <mxGeometry width="50" height="50" relative="1" as="geometry">
            <mxPoint x="740" y="500" as="sourcePoint" />
            <mxPoint x="830" y="500" as="targetPoint" />
          </mxGeometry>
        </mxCell>
        <mxCell id="_P49Gniz_19bYN9I4_xw-92" value="引用关系" style="text;html=1;align=center;verticalAlign=middle;resizable=0;points=[];autosize=1;strokeColor=none;fillColor=none;fontSize=14;fontStyle=1" vertex="1" parent="1">
          <mxGeometry x="855" y="480" width="80" height="30" as="geometry" />
        </mxCell>
      </root>
    </mxGraphModel>
  </diagram>
</mxfile>
